<svg xmlns="http://www.w3.org/2000/svg" width="120" height="120" viewBox="147 328 120 120"><g data-name="Group 85"><g data-name="Mask Group 6" transform="translate(2210 -1256)" clip-path="url(&quot;#a&quot;)"><g data-name="014-chat-bubble"><g data-name="Group 72"><path d="M-2003 1584c33.137 0 60 26.863 60 60s-26.863 60-60 60-60-26.863-60-60 26.863-60 60-60Z" fill="#713aff" fill-rule="evenodd" data-name="Path 113"/><path d="M-2054.909 1643.9a51.909 51.909 0 1 1 0 .1z" fill="#795eff" fill-rule="evenodd" data-name="Ellipse 22"/></g><path d="M-1975.868 1629.548h-14.538v-3.178h1.846a3.935 3.935 0 0 0 3.93-3.93v-.107l.018-.009a3.426 3.426 0 0 0 .207-.125 2.622 2.622 0 0 0 .184-.133c.028-.02.054-.043.08-.065.06-.05.116-.102.17-.156l.047-.048a2.895 2.895 0 0 0 .206-.243l.02-.027.044-.062.06-.088a2.16 2.16 0 0 0 .134-.233 2.712 2.712 0 0 0 .282-.912 2.666 2.666 0 0 0 .022-.355v-.056a2.785 2.785 0 0 0-5.567 0v.056a2.692 2.692 0 0 0 .022.355 2.735 2.735 0 0 0 .38 1.089 2.685 2.685 0 0 0 .233.327l.043.051a2.795 2.795 0 0 0 .72.593l.075.042v.107c0 .722-.587 1.31-1.31 1.31h-1.845v-4.575a3.34 3.34 0 0 0-3.34-3.34h-4.475v-.598a4.78 4.78 0 1 0-9.56 0v.598h-4.474a3.34 3.34 0 0 0-3.34 3.34v4.574h-1.845c-.723 0-1.31-.588-1.31-1.31v-.107l.075-.042a2.852 2.852 0 0 0 .63-.494l.09-.099.043-.05a2.802 2.802 0 0 0 .614-1.417 2.668 2.668 0 0 0 .022-.355v-.056a2.785 2.785 0 1 0-5.13 1.556 1.946 1.946 0 0 0 .104.15c.006.01.013.018.02.027a2.807 2.807 0 0 0 .895.77l.016.01v.106a3.935 3.935 0 0 0 3.93 3.93h1.847v3.178h-14.538a2.674 2.674 0 0 0-2.674 2.675v38.552a2.674 2.674 0 0 0 2.674 2.675h15.265l10.606 10.606a1.783 1.783 0 0 0 2.521 0l10.606-10.606h15.266a2.675 2.675 0 0 0 2.674-2.675v-38.552a2.676 2.676 0 0 0-2.675-2.674Z" fill="#713aff" fill-rule="evenodd" data-name="Path 82"/><g data-name="Group 84"><g data-name="Group 73"><path d="M-1975.868 1629.15h-54.264a2.675 2.675 0 0 0-2.674 2.674v35.433a2.674 2.674 0 0 0 2.674 2.674h15.266l10.606 10.606a1.783 1.783 0 0 0 2.52 0l10.607-10.606h15.265a2.675 2.675 0 0 0 2.675-2.674v-35.433a2.675 2.675 0 0 0-2.675-2.674Z" fill="#bcbec0" fill-rule="evenodd" data-name="Path 83"/><path d="M-1975.868 1626.03h-54.264a2.674 2.674 0 0 0-2.674 2.674v35.433a2.674 2.674 0 0 0 2.674 2.675h16.627l9.875 9.874a.891.891 0 0 0 1.26 0l9.876-9.874h16.626a2.675 2.675 0 0 0 2.675-2.675v-35.433a2.675 2.675 0 0 0-2.675-2.674Z" fill="#fff" fill-rule="evenodd" data-name="Path 84"/></g><path d="M-2015.594 1626.977v9.92a3.34 3.34 0 0 0 3.34 3.34h18.509a3.34 3.34 0 0 0 3.34-3.341v-9.92h-25.189Z" fill="#d1d3d4" fill-rule="evenodd" data-name="Path 85"/><g data-name="Group 81"><path d="M-1993.746 1637.506h-18.508a3.34 3.34 0 0 1-3.34-3.34v-18.508a3.34 3.34 0 0 1 3.34-3.34h18.508a3.34 3.34 0 0 1 3.34 3.34v18.509a3.34 3.34 0 0 1-3.34 3.34Z" fill="#622ae8" fill-rule="evenodd" data-name="Path 86"/><path d="M-1996.158 1637.506h-13.684a2.944 2.944 0 0 1-2.944-2.944v-19.3a2.944 2.944 0 0 1 2.944-2.944h13.684a2.944 2.944 0 0 1 2.944 2.944v19.3a2.944 2.944 0 0 1-2.944 2.944Z" fill="#622ae8" fill-rule="evenodd" data-name="Path 87"/><path d="M-1993.746 1635.132h-18.508a3.34 3.34 0 0 1-3.34-3.34v2.375a3.34 3.34 0 0 0 3.34 3.34h18.508a3.34 3.34 0 0 0 3.34-3.34v-2.375a3.339 3.339 0 0 1-3.34 3.34Z" fill="#713aff" fill-rule="evenodd" data-name="Path 88"/><g data-name="Group 74"><path d="M-2011.295 1619.313a4.08 4.08 0 1 1 5.77 5.77 4.08 4.08 0 0 1-5.77-5.77Z" fill="#713aff" fill-rule="evenodd" data-name="Path 118"/><path d="M-2001.615 1621.544a4.08 4.08 0 1 1 8.055 1.307 4.08 4.08 0 0 1-8.055-1.307Z" fill="#713aff" fill-rule="evenodd" data-name="Path 119"/><path d="M-2011.295 1618.657a4.08 4.08 0 1 1 5.77 5.77 4.08 4.08 0 0 1-5.77-5.77Z" fill="#d1d3d4" fill-rule="evenodd" data-name="Path 120"/><path d="M-2008.41 1624.34a4.077 4.077 0 0 1-4.025-3.44 4.09 4.09 0 0 0-.055.642 4.08 4.08 0 0 0 8.16 0c0-.219-.022-.432-.055-.642a4.078 4.078 0 0 1-4.025 3.44Z" fill="#fff" fill-rule="evenodd" data-name="Path 89"/><path d="M-1998.34 1625.553a4.08 4.08 0 1 1 .099.016z" fill="#d1d3d4" fill-rule="evenodd" data-name="Ellipse 26"/><path d="M-1997.59 1624.34a4.077 4.077 0 0 1-4.024-3.44 4.09 4.09 0 0 0-.056.642 4.08 4.08 0 1 0 8.16 0c0-.219-.022-.432-.055-.642a4.077 4.077 0 0 1-4.025 3.44Z" fill="#fff" fill-rule="evenodd" data-name="Path 90"/></g><g data-name="Group 75"><path d="M-2008.732 1632.9a1.064 1.064 0 0 1-1.064-1.064v-2.457a1.064 1.064 0 0 1 2.129 0v2.457c0 .588-.477 1.064-1.065 1.064Z" fill="#713aff" fill-rule="evenodd" data-name="Path 91"/><path d="M-2004.91 1632.9a1.064 1.064 0 0 1-1.065-1.064v-2.457a1.065 1.065 0 0 1 2.13 0v2.457c-.001.588-.478 1.064-1.065 1.064Z" fill="#713aff" fill-rule="evenodd" data-name="Path 92"/><path d="M-2001.089 1632.9a1.065 1.065 0 0 1-1.065-1.064v-2.457a1.064 1.064 0 0 1 2.13 0v2.457c0 .588-.477 1.064-1.065 1.064Z" fill="#713aff" fill-rule="evenodd" data-name="Path 93"/><path d="M-1997.268 1632.9a1.064 1.064 0 0 1-1.064-1.064v-2.457a1.064 1.064 0 0 1 2.129 0v2.457c0 .588-.477 1.064-1.065 1.064Z" fill="#713aff" fill-rule="evenodd" data-name="Path 94"/></g><path d="M-1997.59 1619.845a1.697 1.697 0 1 1 0 3.395 1.697 1.697 0 0 1 0-3.395Z" fill="#713aff" fill-rule="evenodd" data-name="Path 117"/><path d="M-1997.59 1621.69c-.657 0-1.22-.377-1.502-.923-.121.233-.196.494-.196.775a1.698 1.698 0 0 0 3.396 0c0-.281-.075-.542-.195-.775a1.69 1.69 0 0 1-1.503.923Z" fill="#622ae8" fill-rule="evenodd" data-name="Path 95"/><g data-name="Group 80"><g data-name="Group 77"><g data-name="Group 76"><path d="M-2015.54 1622.852h-1.9a3.935 3.935 0 0 1-3.93-3.93v-2.564a1.31 1.31 0 1 1 2.62 0v2.564c0 .722.587 1.31 1.31 1.31h1.9a1.31 1.31 0 0 1 0 2.62Z" fill="#622ae8" fill-rule="evenodd" data-name="Path 96"/></g><path d="M-2020.06 1618.922a2.62 2.62 0 0 0 2.62 2.62h3.21a1.31 1.31 0 0 0-1.31-1.31h-1.9c-.723 0-1.31-.587-1.31-1.31v-2.564a1.31 1.31 0 0 0-1.31-1.31v3.874Z" fill="#7759ff" fill-rule="evenodd" data-name="Path 97"/><path d="M-2022.845 1616.258a2.784 2.784 0 1 1 0 .1z" fill="#fff" fill-rule="evenodd" data-name="Ellipse 28"/><path d="M-2020.06 1617.462a2.776 2.776 0 0 1-2.642-1.944 2.754 2.754 0 0 0-.143.84 2.785 2.785 0 0 0 5.569 0c0-.295-.059-.573-.144-.84a2.775 2.775 0 0 1-2.64 1.944Z" fill="#d1d3d4" fill-rule="evenodd" data-name="Path 98"/></g><g data-name="Group 79"><g data-name="Group 78"><path d="M-1990.46 1622.852h1.9a3.935 3.935 0 0 0 3.93-3.93v-2.564a1.31 1.31 0 0 0-2.62 0v2.564c0 .722-.587 1.31-1.31 1.31h-1.9a1.31 1.31 0 0 0 0 2.62Z" fill="#622ae8" fill-rule="evenodd" data-name="Path 99"/></g><path d="M-1985.94 1618.922a2.62 2.62 0 0 1-2.62 2.62h-3.21c0-.723.587-1.31 1.31-1.31h1.9c.723 0 1.31-.587 1.31-1.31v-2.564c0-.723.587-1.31 1.31-1.31v3.874Z" fill="#7759ff" fill-rule="evenodd" data-name="Path 100"/><path d="M-1988.724 1616.258a2.784 2.784 0 1 1 0 .1z" fill="#fff" fill-rule="evenodd" data-name="Ellipse 29"/><path d="M-1985.94 1617.462c1.244 0 2.284-.82 2.642-1.944.085.267.143.545.143.84a2.785 2.785 0 0 1-5.569 0c0-.295.059-.573.144-.84a2.775 2.775 0 0 0 2.64 1.944Z" fill="#d1d3d4" fill-rule="evenodd" data-name="Path 101"/></g></g><path d="M-2006.712 1621.542a1.698 1.698 0 1 1-3.397 0 1.698 1.698 0 0 1 3.397 0Z" fill="#713aff" fill-rule="evenodd" data-name="Path 102"/><path d="M-2008.41 1621.69c-.657 0-1.22-.377-1.502-.923-.121.233-.196.494-.196.775a1.698 1.698 0 0 0 3.396 0c0-.281-.075-.542-.195-.775a1.691 1.691 0 0 1-1.503.923Z" fill="#622ae8" fill-rule="evenodd" data-name="Path 103"/><path d="M-2003 1606.94a4.78 4.78 0 0 0-4.78 4.78v.598h9.56v-.598a4.78 4.78 0 0 0-4.78-4.78Z" fill="#f06ea9" fill-rule="evenodd" data-name="Path 104"/><path d="M-2003 1607.475a4.044 4.044 0 0 0-4.044 4.045v.799h8.088v-.8a4.043 4.043 0 0 0-4.044-4.044Z" fill="#ef5a9d" fill-rule="evenodd" data-name="Path 105"/><path d="M-2003 1609.943a2.111 2.111 0 0 0-2.111 2.111v.264h4.222v-.264a2.11 2.11 0 0 0-2.11-2.11Z" fill="#e43d91" fill-rule="evenodd" data-name="Path 106"/></g><g data-name="Group 82"><path d="M-2013.698 1650.137a5.854 5.854 0 0 0-.004-.092v-.005l-.006-.088-.001-.023a5.645 5.645 0 0 0-.009-.091v-.01a39.483 39.483 0 0 0-.01-.081c0-.009-.002-.017-.003-.025-.003-.03-.008-.059-.012-.087l-.002-.017-.012-.074-.005-.026a2.309 2.309 0 0 0-.016-.085l-.004-.016-.015-.073-.006-.025a3.905 3.905 0 0 0-.02-.082l-.007-.024a2.262 2.262 0 0 0-.017-.063l-.008-.029-.023-.077-.008-.027-.019-.058-.01-.03-.026-.073-.012-.032-.019-.05-.013-.033-.028-.07-.015-.033-.02-.047-.015-.034-.031-.068-.017-.034-.021-.042-.018-.035a2.68 2.68 0 0 0-.034-.065l-.018-.034-.024-.041a4.102 4.102 0 0 0-3.573-2.085 4.102 4.102 0 0 0-3.596 2.126l-.018.034a2.68 2.68 0 0 0-.035.065l-.017.035-.021.042-.017.034-.032.068-.015.034-.02.047-.014.033-.029.07-.013.033-.02.05-.011.032a1.813 1.813 0 0 0-.026.073l-.01.03-.018.058-.009.027a3.491 3.491 0 0 0-.023.077l-.008.03-.017.062-.007.024-.02.082a.434.434 0 0 0-.005.025l-.017.073-.003.016a5.049 5.049 0 0 0-.016.085l-.005.026-.012.074a2.584 2.584 0 0 0-.015.104l-.002.025a2.098 2.098 0 0 0-.01.08v.01l-.008.092a5.15 5.15 0 0 0-.008.11v.006l-.004.092v.024l-.001.094a4.103 4.103 0 1 0 8.203-.118Z" fill="#d1d3d4" fill-rule="evenodd" data-name="Path 107"/><path d="m-1998.898 1650.137-.004-.092v-.005l-.006-.088-.001-.023a5.602 5.602 0 0 0-.009-.091v-.01a34.759 34.759 0 0 0-.01-.081c0-.009-.002-.017-.003-.025l-.012-.087a.177.177 0 0 1-.002-.017l-.012-.074-.005-.026a2.285 2.285 0 0 0-.016-.085l-.004-.016-.015-.073-.006-.025a3.905 3.905 0 0 0-.02-.082l-.007-.024a10.699 10.699 0 0 0-.016-.063l-.008-.029-.023-.077-.009-.027-.018-.058-.01-.03c-.01-.025-.018-.05-.026-.073l-.012-.032-.02-.05-.012-.033-.029-.07-.014-.033-.02-.047-.015-.034-.032-.068-.017-.034-.02-.042-.018-.035a2.693 2.693 0 0 0-.034-.065l-.019-.034-.023-.041a4.102 4.102 0 0 0-3.573-2.085c-1.533 0-2.87.84-3.574 2.085l-.023.041-.019.034a2.653 2.653 0 0 0-.034.065l-.017.035-.021.042-.017.034-.032.068-.015.034a1.865 1.865 0 0 0-.02.047l-.014.033-.029.07-.013.033-.019.05-.012.032a1.813 1.813 0 0 0-.025.073l-.01.03-.019.058-.009.027a3.491 3.491 0 0 0-.03.106l-.018.063-.006.024-.02.082-.006.025-.016.073-.003.016-.017.085-.004.026a1.877 1.877 0 0 0-.015.09l-.012.088-.003.025a2.09 2.09 0 0 0-.009.08v.01a5.15 5.15 0 0 0-.009.092l-.001.023a5.15 5.15 0 0 0-.006.088v.005l-.004.092v.024l-.001.094a4.103 4.103 0 1 0 8.207 0l-.001-.094c-.004-.008-.004-.016-.004-.024Z" fill="#d1d3d4" fill-rule="evenodd" data-name="Path 108"/><path d="m-1984.096 1650.249-.001-.086v-.028a5.19 5.19 0 0 0-.004-.089v-.012l-.006-.08-.002-.027-.008-.088-.002-.016-.008-.076-.004-.028a2.324 2.324 0 0 0-.026-.175l-.005-.027a4.089 4.089 0 0 0-.016-.084l-.004-.02-.015-.069-.006-.027a2.338 2.338 0 0 0-.02-.08l-.007-.025-.016-.062-.01-.031c-.006-.026-.014-.051-.022-.076l-.008-.027-.019-.058-.01-.03a3.096 3.096 0 0 0-.026-.073l-.012-.032-.02-.051-.011-.031a3.017 3.017 0 0 0-.03-.072l-.014-.033-.02-.047-.015-.033-.031-.068-.016-.032a1.934 1.934 0 0 0-.023-.046l-.017-.033a2.693 2.693 0 0 0-.034-.065l-.018-.034-.024-.042a4.102 4.102 0 0 0-3.573-2.085c-1.533 0-2.869.84-3.573 2.085l-.023.042-.019.034a2.55 2.55 0 0 0-.034.063l-.018.037-.02.04-.018.037-.031.066-.015.034-.02.046-.015.035c-.01.023-.02.046-.028.069l-.014.033-.019.05-.012.032-.026.073-.01.03-.018.058-.009.027a3.43 3.43 0 0 0-.031.106l-.017.063-.007.024-.02.082a3.088 3.088 0 0 0-.021.097l-.004.017a2.634 2.634 0 0 0-.016.086l-.004.024c-.005.026-.01.052-.013.078l-.002.012a5.49 5.49 0 0 0-.013.09l-.002.021-.01.089v.003l-.01.095v.018a3.93 3.93 0 0 0-.01.19l-.001.02-.001.096a4.084 4.084 0 0 0 1.418 3.103 4.036 4.036 0 0 0 .906.596c.538.259 1.142.404 1.779.404.46 0 .903-.076 1.316-.215.032-.01.063-.022.095-.033a4.109 4.109 0 0 0 2.588-2.928l.021-.1c.055-.267.084-.543.084-.827v-.004Z" fill="#d1d3d4" fill-rule="evenodd" data-name="Path 109"/></g><g data-name="Group 83"><path d="M-2017.8 1644.1a4.104 4.104 0 1 1 0 8.207 4.104 4.104 0 0 1 0-8.207Z" fill="#7759ff" fill-rule="evenodd" data-name="Path 116"/><path d="M-2017.8 1648.203a4.102 4.102 0 0 1-3.554-2.051 4.103 4.103 0 1 0 7.109 0 4.102 4.102 0 0 1-3.555 2.051Z" fill="#622ae8" fill-rule="evenodd" data-name="Path 110"/><path d="M-2003 1644.1a4.104 4.104 0 1 1 0 8.207 4.104 4.104 0 0 1 0-8.207Z" fill="#7759ff" fill-rule="evenodd" data-name="Path 115"/><path d="M-2003 1648.203a4.102 4.102 0 0 1-3.554-2.051 4.103 4.103 0 1 0 7.109 0 4.101 4.101 0 0 1-3.555 2.051Z" fill="#622ae8" fill-rule="evenodd" data-name="Path 111"/><path d="M-1988.2 1644.1a4.104 4.104 0 1 1 0 8.207 4.104 4.104 0 0 1 0-8.207Z" fill="#7759ff" fill-rule="evenodd" data-name="Path 114"/><path d="M-1988.2 1648.203a4.102 4.102 0 0 1-3.554-2.051 4.103 4.103 0 1 0 7.109 0 4.1 4.1 0 0 1-3.555 2.051Z" fill="#622ae8" fill-rule="evenodd" data-name="Path 112"/></g></g></g></g></g><defs><clipPath id="a"><path d="M0 0h120v120H0V0z" data-name="Rectangle 217" transform="translate(-2063 1584)"/></clipPath></defs></svg>