<svg xmlns="http://www.w3.org/2000/svg" width="39.93" height="39.93" viewBox="47 41.8 39.93 39.93"><g data-name="Mask Group 6" transform="translate(47 41.8)" clip-path="url(&quot;#a&quot;)"><g data-name="014-chat-bubble"><g data-name="Group 72"><path d="M19.965 0C30.991 0 39.93 8.939 39.93 19.965S30.991 39.93 19.965 39.93 0 30.991 0 19.965 8.939 0 19.965 0Z" fill="#fff" fill-rule="evenodd" data-name="Path 113"/><path d="M2.692 19.865a17.273 17.273 0 1 1 0 .1z" fill="#795eff" fill-rule="evenodd" data-name="Ellipse 22"/></g><path d="M28.993 15.156h-4.837v-1.057h.614a1.31 1.31 0 0 0 1.308-1.308v-.036c.002 0 .003-.002.005-.003l.02-.01a.929.929 0 0 0 .11-.075l.027-.022a.928.928 0 0 0 .057-.052l.016-.016a.967.967 0 0 0 .068-.08l.007-.01a.79.79 0 0 0 .015-.02l.02-.03a.707.707 0 0 0 .063-.118.852.852 0 0 0 .04-.105.943.943 0 0 0 .042-.276v-.019a.927.927 0 0 0-1.852 0v.019a.89.89 0 0 0 .056.319.924.924 0 0 0 .155.27l.014.018a.918.918 0 0 0 .24.197l.025.014v.035c0 .24-.196.436-.436.436h-.614v-1.522c0-.614-.498-1.112-1.111-1.112h-1.49v-.198a1.59 1.59 0 1 0-3.18 0v.198h-1.49c-.613 0-1.11.498-1.11 1.112v1.522h-.615a.436.436 0 0 1-.436-.436v-.036a.61.61 0 0 0 .082-.049.973.973 0 0 0 .183-.162l.014-.017a.93.93 0 0 0 .212-.59v-.018a.927.927 0 1 0-1.707.518l.02.03.014.02.007.009a.862.862 0 0 0 .167.17 1.104 1.104 0 0 0 .13.086l.006.003v.036a1.31 1.31 0 0 0 1.308 1.308h.615v1.057h-4.838a.89.89 0 0 0-.89.89v12.828c0 .492.399.89.89.89h5.08l3.529 3.53a.593.593 0 0 0 .839 0l3.529-3.53h5.08a.89.89 0 0 0 .89-.89V16.046a.89.89 0 0 0-.89-.89Z" fill="#713aff" fill-rule="evenodd" data-name="Path 82"/><g data-name="Group 84"><g data-name="Group 73"><path d="M28.993 15.024H10.937a.89.89 0 0 0-.89.89v11.79c0 .491.398.89.89.89h5.08l3.529 3.529a.593.593 0 0 0 .839 0l3.529-3.53h5.08a.89.89 0 0 0 .89-.89v-11.79a.89.89 0 0 0-.89-.89Z" fill="#bcbec0" fill-rule="evenodd" data-name="Path 83"/><path d="M28.993 13.986H10.937a.89.89 0 0 0-.89.89v11.79c0 .491.398.89.89.89h5.532l3.286 3.285a.297.297 0 0 0 .42 0l3.286-3.285h5.532a.89.89 0 0 0 .89-.89v-11.79a.89.89 0 0 0-.89-.89Z" fill="#fff" fill-rule="evenodd" data-name="Path 84"/></g><path d="M15.774 14.3v3.301a1.112 1.112 0 0 0 1.111 1.111h6.16a1.111 1.111 0 0 0 1.11-1.11V14.3h-8.38Z" fill="#d1d3d4" fill-rule="evenodd" data-name="Path 85"/><g data-name="Group 81"><path d="M23.044 17.804h-6.158a1.111 1.111 0 0 1-1.112-1.111v-6.159c0-.614.498-1.111 1.112-1.111h6.158c.614 0 1.112.498 1.112 1.111v6.159c0 .614-.498 1.111-1.112 1.111Z" fill="#622ae8" fill-rule="evenodd" data-name="Path 86"/><path d="M22.242 17.804h-4.554a.98.98 0 0 1-.98-.98v-6.421a.98.98 0 0 1 .98-.98h4.554a.98.98 0 0 1 .98.98v6.422a.98.98 0 0 1-.98.98Z" fill="#622ae8" fill-rule="evenodd" data-name="Path 87"/><path d="M23.044 17.014h-6.158a1.111 1.111 0 0 1-1.112-1.111v.79c0 .614.498 1.111 1.112 1.111h6.158c.614 0 1.112-.497 1.112-1.111v-.79c0 .614-.498 1.111-1.112 1.111Z" fill="#713aff" fill-rule="evenodd" data-name="Path 88"/><g data-name="Group 74"><path d="M17.205 11.75a1.358 1.358 0 1 1 1.92 1.92 1.358 1.358 0 0 1-1.92-1.92Z" fill="#713aff" fill-rule="evenodd" data-name="Path 118"/><path d="M20.426 12.493a1.358 1.358 0 1 1 2.68.435 1.358 1.358 0 0 1-2.68-.435Z" fill="#713aff" fill-rule="evenodd" data-name="Path 119"/><path d="M17.205 11.532a1.358 1.358 0 1 1 1.92 1.92 1.358 1.358 0 0 1-1.92-1.92Z" fill="#d1d3d4" fill-rule="evenodd" data-name="Path 120"/><path d="M18.165 13.423a1.357 1.357 0 0 1-1.34-1.144 1.358 1.358 0 1 0 2.678 0 1.357 1.357 0 0 1-1.338 1.144Z" fill="#fff" fill-rule="evenodd" data-name="Path 89"/><path d="M21.45 13.816a1.358 1.358 0 1 1 .098.016z" fill="#d1d3d4" fill-rule="evenodd" data-name="Ellipse 26"/><path d="M21.765 13.423a1.357 1.357 0 0 1-1.339-1.144 1.358 1.358 0 1 0 2.678 0 1.357 1.357 0 0 1-1.339 1.144Z" fill="#fff" fill-rule="evenodd" data-name="Path 90"/></g><g data-name="Group 75"><path d="M18.058 16.271a.354.354 0 0 1-.354-.354V15.1a.354.354 0 0 1 .708 0v.817a.354.354 0 0 1-.354.354Z" fill="#713aff" fill-rule="evenodd" data-name="Path 91"/><path d="M19.33 16.271a.354.354 0 0 1-.355-.354V15.1a.354.354 0 0 1 .708 0v.817a.354.354 0 0 1-.354.354Z" fill="#713aff" fill-rule="evenodd" data-name="Path 92"/><path d="M20.6 16.271a.354.354 0 0 1-.353-.354V15.1a.354.354 0 0 1 .708 0v.817a.354.354 0 0 1-.354.354Z" fill="#713aff" fill-rule="evenodd" data-name="Path 93"/><path d="M21.872 16.271a.354.354 0 0 1-.354-.354V15.1a.354.354 0 0 1 .708 0v.817a.354.354 0 0 1-.354.354Z" fill="#713aff" fill-rule="evenodd" data-name="Path 94"/></g><path d="M21.765 11.927a.565.565 0 1 1 0 1.13.565.565 0 0 1 0-1.13Z" fill="#713aff" fill-rule="evenodd" data-name="Path 117"/><path d="M21.765 12.541a.563.563 0 0 1-.5-.307.558.558 0 0 0-.065.258.565.565 0 0 0 1.13 0 .558.558 0 0 0-.065-.258.562.562 0 0 1-.5.307Z" fill="#622ae8" fill-rule="evenodd" data-name="Path 95"/><g data-name="Group 80"><g data-name="Group 77"><g data-name="Group 76"><path d="M15.792 12.928h-.632a1.31 1.31 0 0 1-1.308-1.308v-.853a.436.436 0 1 1 .872 0v.853c0 .24.195.436.436.436h.632a.436.436 0 0 1 0 .872Z" fill="#622ae8" fill-rule="evenodd" data-name="Path 96"/></g><path d="M14.288 11.62c0 .482.39.872.872.872h1.068a.436.436 0 0 0-.436-.436h-.632a.436.436 0 0 1-.436-.436v-.853a.436.436 0 0 0-.436-.436v1.289Z" fill="#7759ff" fill-rule="evenodd" data-name="Path 97"/><path d="M13.362 10.667a.927.927 0 1 1 0 .1z" fill="#fff" fill-rule="evenodd" data-name="Ellipse 28"/><path d="M14.288 11.135a.924.924 0 0 1-.879-.647.916.916 0 0 0-.047.28.927.927 0 0 0 1.853 0c0-.099-.02-.192-.048-.28a.923.923 0 0 1-.879.647Z" fill="#d1d3d4" fill-rule="evenodd" data-name="Path 98"/></g><g data-name="Group 79"><g data-name="Group 78"><path d="M24.138 12.928h.632a1.31 1.31 0 0 0 1.308-1.308v-.853a.436.436 0 0 0-.872 0v.853c0 .24-.195.436-.436.436h-.632a.436.436 0 0 0 0 .872Z" fill="#622ae8" fill-rule="evenodd" data-name="Path 99"/></g><path d="M25.642 11.62c0 .482-.39.872-.872.872h-1.068c0-.24.195-.436.436-.436h.632c.24 0 .436-.195.436-.436v-.853c0-.24.195-.436.436-.436v1.289Z" fill="#7759ff" fill-rule="evenodd" data-name="Path 100"/><path d="M24.716 10.667a.927.927 0 1 1 0 .1z" fill="#fff" fill-rule="evenodd" data-name="Ellipse 29"/><path d="M25.642 11.135c.414 0 .76-.273.879-.647a.916.916 0 0 1 .048.28.927.927 0 0 1-1.853 0c0-.099.019-.192.047-.28.12.374.465.647.879.647Z" fill="#d1d3d4" fill-rule="evenodd" data-name="Path 101"/></g></g><path d="M18.73 12.492a.565.565 0 1 1-1.13 0 .565.565 0 0 1 1.13 0Z" fill="#713aff" fill-rule="evenodd" data-name="Path 102"/><path d="M18.165 12.541a.563.563 0 0 1-.5-.307.558.558 0 0 0-.065.258.565.565 0 0 0 1.13 0 .558.558 0 0 0-.065-.258.563.563 0 0 1-.5.307Z" fill="#622ae8" fill-rule="evenodd" data-name="Path 103"/><path d="M19.965 7.634a1.59 1.59 0 0 0-1.59 1.59v.199h3.18v-.2a1.59 1.59 0 0 0-1.59-1.59Z" fill="#f06ea9" fill-rule="evenodd" data-name="Path 104"/><path d="M19.965 7.811c-.743 0-1.346.603-1.346 1.346v.266h2.692v-.266c0-.743-.603-1.346-1.346-1.346Z" fill="#ef5a9d" fill-rule="evenodd" data-name="Path 105"/><path d="M19.965 8.633a.702.702 0 0 0-.702.702v.088h1.404v-.088a.702.702 0 0 0-.702-.702Z" fill="#e43d91" fill-rule="evenodd" data-name="Path 106"/></g><g data-name="Group 82"><path d="m16.405 22.007-.001-.03v-.002l-.002-.03v-.007a1.897 1.897 0 0 0-.004-.034l-.003-.027v-.008l-.005-.03v-.005a81.548 81.548 0 0 1-.004-.024l-.002-.009a.768.768 0 0 0-.005-.028l-.002-.006-.005-.024-.002-.008a1.282 1.282 0 0 0-.006-.027l-.003-.009a.775.775 0 0 0-.005-.02l-.003-.01-.008-.026-.002-.009-.007-.019-.003-.01-.008-.024-.004-.01-.007-.017-.004-.012-.01-.023-.004-.01-.007-.016-.005-.012-.01-.022-.006-.012-.007-.014-.006-.011a.885.885 0 0 0-.011-.022l-.007-.011-.007-.014a1.365 1.365 0 0 0-2.386.014l-.006.011a.899.899 0 0 0-.011.022l-.006.011-.007.014-.006.012-.01.022-.005.012-.007.015-.005.011-.01.023-.004.012-.006.016-.004.01a.605.605 0 0 0-.009.025c0 .004-.002.007-.003.01l-.006.02a1.145 1.145 0 0 0-.01.035c-.002.002-.003.005-.003.009l-.006.02-.002.009-.007.027a.143.143 0 0 0-.002.008l-.005.024-.001.006-.006.028-.001.009-.004.024-.001.006a.845.845 0 0 0-.004.029l-.001.008a.693.693 0 0 0-.003.03l-.003.03v.008l-.003.03v.032l-.001.008v.031a1.365 1.365 0 1 0 2.73 0v-.03a.026.026 0 0 1 0-.009Z" fill="#d1d3d4" fill-rule="evenodd" data-name="Path 107"/><path d="m21.33 22.007-.001-.03v-.002l-.002-.03v-.007l-.004-.03v-.004a10.517 10.517 0 0 0-.003-.027v-.008l-.005-.03v-.005l-.005-.024-.001-.009a.76.76 0 0 0-.006-.028v-.006l-.006-.024-.002-.008a1.355 1.355 0 0 0-.007-.027l-.002-.009a3.275 3.275 0 0 0-.005-.02l-.003-.01-.008-.026-.003-.009-.006-.019-.003-.01-.009-.024c0-.004-.002-.007-.004-.01l-.006-.017-.004-.012-.01-.023-.005-.01-.006-.016-.005-.012-.01-.022-.006-.012-.007-.014-.006-.011a.885.885 0 0 0-.012-.022l-.006-.011-.007-.014a1.365 1.365 0 0 0-2.378 0l-.008.014-.006.011a.86.86 0 0 0-.012.022l-.006.011-.007.014-.005.012-.01.022-.006.012-.006.015-.005.011-.01.023-.004.012-.006.016-.004.01a.61.61 0 0 0-.009.025l-.003.01-.006.02-.003.008a1.186 1.186 0 0 0-.01.036l-.006.02-.002.009-.007.027-.002.008a1.057 1.057 0 0 0-.005.024l-.001.006-.006.028-.001.009a.63.63 0 0 0-.01.059v.008a.686.686 0 0 0-.006.06v.008l-.003.03v.032l-.001.008v.031a1.365 1.365 0 1 0 2.73 0v-.03l-.001-.009Z" fill="#d1d3d4" fill-rule="evenodd" data-name="Path 108"/><path d="M26.255 22.044v-.038l-.001-.03v-.003l-.002-.027-.001-.009-.003-.03v-.004l-.003-.026-.001-.009a.75.75 0 0 0-.004-.028l-.001-.006a1.248 1.248 0 0 0-.004-.024l-.002-.01a1.304 1.304 0 0 0-.005-.027l-.001-.007a4.07 4.07 0 0 0-.014-.059l-.002-.008-.006-.02c0-.004-.001-.007-.003-.01l-.007-.026a.2.2 0 0 1-.003-.01l-.006-.018-.004-.01a1.022 1.022 0 0 0-.008-.025l-.004-.01-.007-.017a.976.976 0 0 0-.014-.034c0-.004-.002-.008-.004-.011l-.007-.016-.005-.011-.01-.023-.005-.01a.672.672 0 0 0-.008-.016l-.006-.01a.886.886 0 0 0-.011-.022l-.006-.012-.008-.013a1.365 1.365 0 0 0-2.378 0l-.008.013-.006.012a.846.846 0 0 0-.011.02l-.006.013-.007.014-.006.012-.01.022-.005.011a.437.437 0 0 0-.007.015l-.005.012a1.244 1.244 0 0 0-.01.023c0 .004-.002.007-.004.01l-.006.017-.004.011a1.022 1.022 0 0 0-.009.025l-.003.01-.006.019-.003.009a1.157 1.157 0 0 0-.01.035l-.006.02-.002.009-.007.027a1.078 1.078 0 0 0-.007.032l-.001.006a.887.887 0 0 0-.006.029l-.001.008a1.347 1.347 0 0 0-.004.026l-.001.004-.004.03-.001.007-.003.03c-.002.01-.003.021-.003.032v.006c-.002.02-.004.042-.004.063v.039a1.359 1.359 0 0 0 .773 1.23 1.365 1.365 0 0 0 1.03.063l.031-.01a1.367 1.367 0 0 0 .896-1.283v-.002Z" fill="#d1d3d4" fill-rule="evenodd" data-name="Path 109"/></g><g data-name="Group 83"><path d="M15.04 19.998a1.365 1.365 0 1 1 0 2.731 1.365 1.365 0 0 1 0-2.73Z" fill="#7759ff" fill-rule="evenodd" data-name="Path 116"/><path d="M15.04 21.364c-.505 0-.946-.275-1.182-.683a1.365 1.365 0 1 0 2.365 0 1.365 1.365 0 0 1-1.183.683Z" fill="#622ae8" fill-rule="evenodd" data-name="Path 110"/><path d="M19.965 19.998a1.365 1.365 0 1 1 0 2.731 1.365 1.365 0 0 1 0-2.73Z" fill="#7759ff" fill-rule="evenodd" data-name="Path 115"/><path d="M19.965 21.364c-.505 0-.947-.275-1.183-.683a1.365 1.365 0 1 0 2.365 0 1.365 1.365 0 0 1-1.182.683Z" fill="#622ae8" fill-rule="evenodd" data-name="Path 111"/><path d="M24.89 19.998a1.365 1.365 0 1 1 0 2.731 1.365 1.365 0 0 1 0-2.73Z" fill="#7759ff" fill-rule="evenodd" data-name="Path 114"/><path d="M24.89 21.364c-.506 0-.947-.275-1.183-.683a1.365 1.365 0 1 0 2.365 0 1.364 1.364 0 0 1-1.182.683Z" fill="#622ae8" fill-rule="evenodd" data-name="Path 112"/></g></g></g></g><defs><clipPath id="a"><path d="M0 0h40v40H0V0z" data-name="Rectangle 217" transform="translate(0 .2)"/></clipPath></defs></svg>